# xmcd
#
# Track frame offsets:
#	225
#	10377
#	22965
#	34747
#	43275
#	55531
#	72092
#	86293
#	95185
#	108874
#	121747
#	134528
#	146054
#	160213
#	172684
#	188611
#	204521
#	222965
#
# Disc length: 3161 seconds
#
# Revision: 0
# Processed by: cddbd v1.5.1PL2 Copyright (c) Steve Scherf et al.
# Submitted via: audiograbber 1.83.01
#
DISCID=f00c5612
DTITLE=Various Artist - Country Ballads [CD 1)
DYEAR=1900
DGENRE=Country
TTITLE0=Patsy Cline - Three Cigarettes In An Ashtray
TTITLE1=Jerry Wallace - In The Misty Moonlight
TTITLE2=Troy Shondell - This Time
TTITLE3=Roger Miller - England Swings
TTITLE4=Merle Haggard - Everbody's Had The Blues
TTITLE5=Lee Greenwood - Ring On Her Finger, Time On Her Hands
TTITLE6=T. Graham Brown - Hell And High Water
TTITLE7=Sandy Woman - Born A Woman
TTITLE8=Mel McDaniel - Baby's Got Her Blue Jeans On
TTITLE9=The Jordanaires - Love Lifted Me
TTITLE10=The Oak Rigde Boys - Thank Got I'm Reborn
TTITLE11=The Kendalls - Heaven's Just A Sin Away
TTITLE12=Conway Twitty - You've Never Been This Far Before
TTITLE13=Wynn Steward - Wishful Thinking
TTITLE14=Bill Anderson - Mama Sang A Song
TTITLE15=Lucky - It Only Takes A Little Woman
TTITLE16=Linda Ronstadt - Silver Threads And Golden Needles
TTITLE17=Sonny Hill - Crying The Chapel
EXTD=
EXTT0=
EXTT1=
EXTT2=
EXTT3=
EXTT4=
EXTT5=
EXTT6=
EXTT7=
EXTT8=
EXTT9=
EXTT10=
EXTT11=
EXTT12=
EXTT13=
EXTT14=
EXTT15=
EXTT16=
EXTT17=
PLAYORDER=
